<svg width="364" height="142" viewBox="42 26 364 142" fill="none" xmlns="http://www.w3.org/2000/svg">
<path d="M64.3545 96.1787C64.8277 96.1508 65.4262 96.1981 66.166 96.3164C66.894 96.4429 67.7659 96.6976 68.7832 97.1025C69.7873 97.5022 70.9063 98.1294 72.1416 98.9883L75.9336 102.039L77.3086 104.986C77.8543 106.265 78.126 107.54 78.126 108.811C78.1259 111.742 77.033 114.527 74.8145 117.17L74.5967 117.428L74.9072 117.561C77.0277 118.464 78.729 119.279 80.0127 120.007C81.2981 120.735 82.1423 121.363 82.5781 121.885C83.063 122.555 83.5533 123.436 84.0469 124.552V124.553C84.5359 125.648 84.9415 127.036 85.249 128.701V128.702L86.3691 135.263L86.4053 135.474V135.86C86.4053 137.986 85.59 140.318 83.916 142.894C82.2553 145.439 79.4214 147.895 75.3789 150.265L75.377 150.267C73.8259 151.201 72.397 151.924 71.1016 152.448C69.7985 152.975 68.4757 153.444 67.1426 153.852C65.8074 154.26 64.3915 154.649 62.8955 155.018C61.3976 155.387 59.7241 155.885 57.8555 156.511H53.1279C51.6433 156.381 50.5677 156.125 49.8652 155.741C49.153 155.352 48.6653 154.857 48.3818 154.264C48.0909 153.644 47.9356 152.892 47.9355 151.98V147.58C47.9356 147.214 47.9647 146.825 48.0234 146.395L48.0293 146.354L48.0215 146.312C47.9651 146.021 47.9355 145.687 47.9355 145.33V144.021C47.9355 139.774 48.0752 136.486 48.3535 134.12C48.6339 131.747 48.7754 129.895 48.7754 128.561C48.7754 127.807 48.7556 126.993 48.7256 126.112V126.111C48.7106 125.678 48.6982 125.219 48.6895 124.737L48.6758 123.221C48.7955 121.537 48.9552 119.644 49.1445 117.532C49.3349 115.408 49.4852 113.024 49.6152 110.402L49.6162 110.382L49.6143 110.36C49.5517 109.839 49.3858 109.152 49.1348 108.309C48.884 107.466 48.6137 106.613 48.333 105.771C48.056 104.941 47.7003 103.874 47.2666 102.583C47.2823 101.712 47.8475 100.821 49.083 99.9229L49.084 99.9219C50.3105 99.0212 52.0463 98.4985 54.3281 98.3799L54.376 98.3779L54.4189 98.3584C57.5743 96.9295 60.5091 96.2305 63.2158 96.2305C63.4726 96.2305 63.8491 96.2202 64.3555 96.1797L64.3545 96.1787ZM66.7061 123.521C66.0555 123.521 65.2314 123.656 64.2529 123.908C63.2795 124.159 62.276 124.44 61.2432 124.751C60.2109 125.062 59.2689 125.363 58.4268 125.644C57.5879 125.923 57.0178 126.089 56.7207 126.156L56.5254 126.2V128.551C56.5254 130.238 56.4953 131.713 56.4355 132.988C56.3756 134.266 56.3061 135.609 56.2461 137.02C56.1861 138.419 56.1157 140.001 56.0557 141.752C55.9957 143.502 55.9253 145.654 55.8652 148.215L55.8594 148.471H56.5859C58.0647 148.471 59.904 148.091 62.0967 147.337L62.1006 147.336L69.1201 144.806L69.1191 144.805C69.8929 144.546 70.7501 144.118 71.6982 143.522C72.6505 142.925 73.5318 142.256 74.3516 141.527C75.1659 140.803 75.9012 140.099 76.5664 139.403C77.1743 138.768 77.5982 138.172 77.8193 137.61H77.8457L77.9023 137.439C78.1624 136.659 78.2959 135.762 78.2959 134.74C78.2959 132.961 78.0191 131.377 77.4512 129.992L77.334 129.719C76.7006 128.289 75.8496 127.117 74.7881 126.21L74.7871 126.209L74.3828 125.885C73.558 125.256 72.6351 124.75 71.6113 124.371L71.0918 124.192C69.6962 123.744 68.2306 123.521 66.7061 123.521ZM63.6152 103.48C60.9013 103.481 58.8698 104.014 57.5537 105.13L57.4971 105.178L57.4756 105.25C57.3372 105.719 57.2754 106.243 57.2754 106.82V108.79C57.2754 109.53 57.2264 110.412 57.1367 111.438C57.0481 112.453 56.84 113.641 56.5312 115.016C56.3415 115.765 56.2008 116.377 56.1074 116.851C56.015 117.319 55.9658 117.669 55.9658 117.881V118.178L56.2588 118.127C59.964 117.476 63.0564 116.417 65.5186 114.924L66.002 114.62C68.5327 112.98 69.8652 111.134 69.8652 109.07C69.8652 108.75 69.8452 108.44 69.8145 108.153C69.7834 107.864 69.7315 107.556 69.6709 107.243L69.6318 107.04H69.583C69.4861 106.832 69.3249 106.571 69.1123 106.26C68.8146 105.824 68.4057 105.406 67.8945 104.987C67.3721 104.559 66.7591 104.207 66.0498 103.919C65.3254 103.625 64.5121 103.48 63.6152 103.48Z" fill="#080D07" stroke="black" stroke-width="0.5"></path>
<path d="M198.424 131.929C198.364 133.799 198.294 135.289 198.234 136.379C198.174 137.469 198.094 138.379 198.004 139.099C197.914 139.819 197.754 140.459 197.534 141.019C197.314 141.579 197.024 142.269 196.644 143.079C195.334 146.079 193.304 148.389 190.554 150.009C187.804 151.629 184.314 152.449 180.064 152.449H176.504C175.624 152.449 174.674 152.289 173.644 151.979C172.614 151.669 171.314 151.119 169.754 150.339C168.194 149.559 165.974 148.419 163.104 146.919C160.854 145.729 159.734 144.239 159.734 142.419C159.734 141.299 160.104 140.279 160.854 139.379C161.604 138.479 162.574 137.959 163.754 137.829C168.254 139.269 171.344 140.769 173.024 142.329C175.274 143.329 177.984 143.829 181.174 143.829C183.854 143.829 186.014 143.049 187.634 141.489C187.884 140.799 188.144 139.839 188.434 138.589C188.714 137.339 188.854 135.839 188.854 134.089C188.854 132.719 188.444 131.579 187.634 130.669C186.824 129.769 185.794 128.969 184.544 128.279C183.294 127.589 181.904 126.969 180.374 126.409C178.844 125.849 177.394 125.259 176.024 124.629C174.964 124.189 173.904 123.689 172.844 123.129C171.784 122.569 170.724 121.849 169.664 120.979C166.974 116.419 165.634 113.209 165.634 111.329C165.634 106.649 168.414 102.179 173.974 97.9391C179.154 96.0091 182.684 95.0391 184.554 95.0391C185.244 95.0391 186.144 95.2891 187.274 95.7891C188.394 96.2891 189.504 96.9091 190.604 97.6591C191.694 98.4091 192.634 99.2391 193.414 100.139C194.194 101.049 194.584 101.939 194.584 102.809C194.584 103.869 194.164 104.789 193.324 105.569C192.484 106.349 191.404 106.739 190.094 106.739C189.974 106.739 189.624 106.549 189.064 106.179C188.504 105.809 187.834 105.399 187.054 104.959C186.274 104.519 185.494 104.119 184.714 103.739C183.934 103.369 183.294 103.179 182.794 103.179C181.734 103.179 180.714 103.429 179.754 103.929C178.784 104.429 177.924 105.049 177.174 105.799C176.424 106.549 175.834 107.379 175.394 108.279C174.954 109.189 174.734 110.009 174.734 110.759C174.734 112.199 175.174 113.479 176.044 114.599C176.914 115.719 177.974 116.629 179.224 117.319L185.124 119.379C186.624 119.939 188.084 120.659 189.524 121.529C190.964 122.409 192.274 123.389 193.454 124.479C194.644 125.569 195.674 126.759 196.544 128.039C197.414 129.319 198.044 130.619 198.414 131.929H198.424Z" fill="#080D07"></path>
<path d="M247.781 111.878C246.901 112.248 245.941 112.438 244.881 112.438C244.571 112.438 244.111 112.408 243.521 112.348C242.931 112.288 242.291 112.208 241.601 112.118C240.911 112.028 240.241 111.928 239.591 111.838C238.931 111.748 238.451 111.698 238.141 111.698C236.141 111.698 234.211 111.978 232.331 112.538C232.701 114.908 233.021 117.218 233.271 119.468C233.521 121.718 233.741 123.818 233.931 125.788C234.121 127.758 234.241 129.538 234.311 131.128C234.371 132.718 234.401 134.078 234.401 135.198C234.401 138.008 234.381 140.428 234.351 142.458C234.321 144.488 234.151 146.178 233.831 147.518C233.521 148.858 233.021 149.848 232.331 150.468C231.641 151.088 230.641 151.408 229.331 151.408C228.021 151.408 227.161 151.078 226.571 150.428C225.981 149.768 225.571 148.988 225.351 148.088C225.131 147.188 225.041 146.228 225.071 145.228C225.101 144.228 225.121 143.388 225.121 142.698C225.121 141.508 225.211 140.438 225.401 139.468C225.591 138.498 225.681 137.578 225.681 136.708C225.681 136.268 225.561 134.698 225.311 131.978C225.061 129.258 224.931 125.848 224.931 121.718C224.931 120.348 224.791 118.988 224.511 117.648C224.231 116.308 223.931 115.008 223.621 113.758L218.091 114.138C215.841 114.328 214.281 114.668 213.411 115.168C212.101 115.168 210.971 114.798 210.041 114.048C209.101 113.298 208.641 112.328 208.641 111.148C208.641 109.968 209.171 108.648 210.231 107.218C210.541 107.158 211.951 106.918 214.441 106.518C216.941 106.108 220.531 105.478 225.211 104.598L229.891 104.038C231.391 103.848 232.821 103.758 234.201 103.758H235.611L246.661 104.508C247.971 105.258 248.631 106.658 248.631 108.718C248.631 109.838 248.351 110.908 247.791 111.898L247.781 111.878Z" fill="#080D07"></path>
<path d="M297.887 151.691C297.637 152.881 296.477 153.471 294.417 153.471C292.727 153.471 291.517 153.091 290.767 152.351C290.457 151.291 290.017 149.991 289.457 148.461C288.897 146.931 288.237 145.171 287.487 143.171C287.107 140.731 286.757 139.021 286.407 138.021C286.067 137.021 285.637 136.271 285.147 135.771C284.207 135.831 282.867 135.941 281.117 136.101C279.367 136.261 277.527 136.441 275.587 136.661C273.647 136.881 271.837 137.161 270.157 137.501C268.467 137.841 267.257 138.201 266.507 138.581C266.197 140.141 265.817 141.861 265.387 143.731C264.947 145.601 264.417 147.601 263.797 149.721C263.607 150.341 263.177 150.801 262.487 151.081C261.797 151.361 260.957 151.501 259.957 151.501C258.957 151.501 258.097 151.331 257.377 150.981C256.657 150.641 256.297 150.121 256.297 149.431C256.297 148.181 257.047 144.471 258.547 138.281C258.487 138.031 258.457 137.661 258.457 137.161C258.457 136.351 258.567 135.331 258.787 134.121C259.007 132.901 259.237 131.731 259.487 130.611C259.737 129.491 259.967 128.521 260.187 127.711C260.407 126.901 260.517 126.461 260.517 126.401L263.517 118.061C263.637 117.251 263.967 116.161 264.497 114.781C265.027 113.411 265.607 112.001 266.227 110.571C266.847 109.131 267.447 107.781 268.007 106.501C268.567 105.221 268.947 104.241 269.127 103.551C269.687 101.491 271.187 100.461 273.627 100.461C275.627 100.461 276.907 101.211 277.467 102.711C278.217 104.081 278.907 105.301 279.527 106.361C280.147 107.421 280.817 108.591 281.537 109.871C282.257 111.151 282.927 112.371 283.547 113.521C284.167 114.681 284.697 115.711 285.137 116.611C285.577 117.521 285.827 118.121 285.887 118.441C286.387 119.631 287.007 120.981 287.757 122.511C288.507 124.041 289.407 125.741 290.477 127.611C291.097 128.421 291.677 129.501 292.207 130.841C292.737 132.181 293.217 133.541 293.657 134.911C294.097 136.281 294.467 137.531 294.777 138.661C295.087 139.781 295.367 140.531 295.617 140.911C295.617 141.351 295.757 142.021 296.037 142.921C296.317 143.831 296.597 144.781 296.877 145.781C297.157 146.781 297.427 147.721 297.677 148.591C297.927 149.471 298.047 150.091 298.047 150.461C298.047 150.771 297.987 151.181 297.857 151.681L297.887 151.691ZM281.497 128.091C280.997 126.591 280.547 125.311 280.137 124.251C279.727 123.191 279.257 122.131 278.737 121.071C278.207 120.011 277.597 118.811 276.907 117.461C276.217 116.121 275.347 114.391 274.287 112.261C272.847 114.881 271.817 117.911 271.197 121.341C269.887 123.901 268.947 126.621 268.387 129.491C270.317 128.931 271.887 128.651 273.067 128.651C273.507 128.651 273.817 128.681 274.007 128.741C275.067 128.491 276.347 128.371 277.847 128.371C279.347 128.371 280.567 128.281 281.497 128.091Z" fill="#080D07"></path>
<path d="M339.393 136.8C337.583 133.24 335.963 130.56 334.523 128.75C336.703 127.25 338.393 126 339.583 125C340.773 124 341.643 123.03 342.203 122.1C342.763 121.16 343.093 120.21 343.183 119.24C343.273 118.27 343.323 117.1 343.323 115.73C343.323 113.73 342.933 111.83 342.153 110.02C341.373 108.21 339.823 106.4 337.513 104.59L333.393 101.78C332.513 101.53 331.773 101.33 331.143 101.17C330.513 101.01 329.953 100.89 329.453 100.8C328.953 100.71 328.453 100.65 327.953 100.61C327.453 100.58 326.893 100.56 326.263 100.56H323.783C322.813 100.56 321.703 100.62 320.453 100.75C319.143 100.31 317.833 100.09 316.523 100.09C314.653 100.09 313.463 100.56 312.963 101.49C312.463 102.43 312.183 103.64 312.123 105.14L311.843 108.42C311.903 108.86 311.953 109.28 311.983 109.68C312.013 110.09 312.033 110.51 312.033 110.94C312.033 112.31 311.843 113.97 311.473 115.9L310.723 121.52C310.593 123.08 310.553 124.46 310.583 125.64C310.613 126.83 310.593 127.83 310.533 128.64L309.873 142.78V143.25C309.873 143.44 309.853 143.83 309.823 144.42C309.793 145.01 309.763 145.68 309.733 146.43C309.703 147.18 309.673 147.91 309.643 148.63C309.613 149.35 309.593 149.96 309.593 150.46C309.593 152.08 310.043 153.22 310.953 153.88C311.853 154.54 312.933 154.86 314.183 154.86C315.623 154.86 316.713 154.3 317.463 153.17C318.023 149.24 318.303 145.58 318.303 142.21V139.31C318.303 138.69 318.363 137.75 318.493 136.5C318.613 135.25 318.773 133.66 318.963 131.72H319.433C319.813 131.72 320.353 131.67 321.073 131.58C321.793 131.49 322.493 131.39 323.183 131.3C323.873 131.21 324.493 131.11 325.053 131.02C325.613 130.93 325.953 130.88 326.083 130.88C326.143 131.07 326.423 131.55 326.923 132.33C327.423 133.11 327.963 133.95 328.563 134.86C329.153 135.77 329.703 136.62 330.203 137.44C330.703 138.25 331.013 138.84 331.143 139.22C331.083 139.16 331.253 139.42 331.653 140.02C332.063 140.61 332.603 141.38 333.293 142.31C333.983 143.25 334.733 144.25 335.543 145.31C336.353 146.37 337.103 147.37 337.793 148.31C338.483 149.25 339.073 150.03 339.573 150.65C340.073 151.27 340.353 151.59 340.413 151.59C340.723 151.9 341.133 152.06 341.633 152.06C342.633 152.06 343.633 151.58 344.633 150.61C345.633 149.64 346.133 148.6 346.133 147.47C342.763 141.23 340.513 137.67 339.393 136.79V136.8ZM332.643 119.66C331.643 120.35 330.493 120.96 329.183 121.49C327.873 122.02 326.483 122.46 325.013 122.8C323.543 123.14 322.213 123.32 321.033 123.32H320.283C320.033 123.32 319.783 123.29 319.533 123.23C319.783 120.11 320.003 117.67 320.193 115.92C320.383 114.17 320.523 112.83 320.613 111.89C320.703 110.95 320.753 110.31 320.753 109.97C320.753 109.63 320.723 109.27 320.663 108.89C321.353 108.77 321.973 108.66 322.533 108.56C323.093 108.47 323.563 108.36 323.943 108.23C324.383 108.17 324.723 108.11 324.973 108.04C325.843 108.04 326.943 108.29 328.253 108.79C329.753 109.41 330.923 110.05 331.763 110.71C332.603 111.37 333.243 112.02 333.683 112.68C334.123 113.34 334.403 113.99 334.523 114.65C334.653 115.31 334.713 115.95 334.713 116.57C334.713 117.01 334.683 117.35 334.623 117.6C334.313 118.29 333.653 118.97 332.653 119.66H332.643Z" fill="#080D07"></path>
<path d="M397.723 122.09C397.663 124.4 397.393 126.41 396.923 128.13C396.453 129.85 395.753 131.55 394.813 133.23C393.873 134.92 392.693 136.74 391.253 138.71C389.813 140.68 388.073 143 386.013 145.69C385.703 145.82 385.073 146.22 384.143 146.91C383.203 147.6 382.163 148.31 381.003 149.06C379.843 149.81 378.693 150.51 377.533 151.17C376.373 151.83 375.483 152.18 374.863 152.25C373.493 152.37 372.143 152.64 370.833 153.05C369.523 153.46 368.243 153.97 366.993 154.59C363.303 154.59 361.243 153.28 360.813 150.66C360.813 150.35 360.823 149.97 360.863 149.54C360.893 149.1 360.913 148.64 360.913 148.13C360.913 145.01 360.613 141.36 360.023 137.17C359.433 132.99 359.133 128.55 359.133 123.87C359.133 119.5 359.603 113.51 360.533 105.89C361.033 104.7 361.753 103.83 362.683 103.27C363.613 102.71 364.713 102.43 365.963 102.43C367.023 102.43 368.053 102.68 369.053 103.18C372.053 102.18 374.953 101.68 377.763 101.68C379.513 101.68 381.293 101.93 383.103 102.43C384.913 102.93 386.583 103.59 388.113 104.4C389.643 105.21 391.003 106.12 392.183 107.12C393.363 108.12 394.243 109.09 394.803 110.02C396.733 115.58 397.703 119.61 397.703 122.1L397.723 122.09ZM389.013 119.94C388.883 118.82 388.713 117.85 388.493 117.04C388.273 116.23 387.883 115.48 387.323 114.79C386.763 114.1 385.983 113.45 384.983 112.82C383.983 112.2 382.703 111.51 381.143 110.76C380.453 110.45 379.763 110.21 379.083 110.06C378.393 109.9 377.613 109.83 376.743 109.83C376.123 109.83 375.353 109.91 374.453 110.06C373.543 110.22 372.663 110.36 371.783 110.48C370.723 110.67 369.663 110.85 368.603 111.04C367.853 113.6 367.483 118.53 367.483 125.84C367.483 126.59 367.573 128.1 367.763 130.38C367.953 132.66 368.263 135.77 368.703 139.7C368.893 141.7 369.173 143.51 369.543 145.13C370.663 144.82 373.413 143.41 377.783 140.92C378.343 140.61 379.253 139.91 380.503 138.81C381.753 137.72 383.013 136.31 384.293 134.6C385.573 132.88 386.683 130.89 387.623 128.61C388.563 126.33 389.033 123.85 389.033 121.16V119.94H389.013Z" fill="#080D07"></path>
<path d="M187.619 75.9491C185.739 86.8291 175.129 91.5991 164.729 90.7691C152.939 89.8291 141.959 84.0791 134.589 74.8691C129.459 68.4691 126.279 58.3991 130.589 51.5891C134.929 44.7391 141.869 40.0791 149.739 38.1591C158.359 36.0491 167.029 37.8591 174.309 42.6991L179.899 47.2991C186.209 54.8991 189.249 66.4491 187.609 75.9491H187.619ZM179.119 72.5691C180.299 70.5591 180.329 68.1191 180.189 65.7891L179.979 62.0791C179.359 60.0691 178.939 58.1591 178.539 56.0991C178.039 53.5891 176.089 51.8791 174.339 50.0891C172.369 48.0591 169.589 47.2991 167.149 46.0091C164.959 44.8491 163.039 44.3391 160.469 44.4791C156.089 44.7291 149.659 44.6491 146.179 46.8991C144.559 47.9491 142.679 48.8591 141.349 50.3991C139.379 52.6691 138.349 56.3591 138.709 59.4091C139.209 63.7191 144.889 69.6791 148.649 72.7291C155.569 78.3491 164.289 80.6991 172.749 77.6191C174.959 76.8091 178.139 74.2291 179.109 72.5691H179.119Z" fill="#080D07"></path>
<path d="M287.927 83.7295C283.987 84.1395 280.357 83.6395 276.947 82.1295C271.787 81.2195 268.417 77.7295 265.097 73.9795C260.577 68.8795 257.447 63.0895 256.427 56.1695C256.157 52.0695 257.397 48.0595 259.427 44.5395C260.887 41.9995 263.177 40.7595 265.457 39.1295C269.657 36.1395 274.117 34.3695 279.447 34.4395C284.777 34.5095 289.367 35.5595 294.167 37.2295C298.967 38.8995 302.577 41.8395 305.337 45.8595C307.387 47.6995 308.797 49.8895 309.647 52.5395C312.767 62.2495 311.147 75.0495 302.337 81.0695C297.787 82.9595 293.107 83.9195 287.917 83.7295H287.927ZM298.527 77.3295C301.037 76.7295 302.487 75.2895 303.577 73.2295C305.407 69.7495 307.017 65.9995 306.557 61.8995C306.097 57.7995 304.107 53.7195 301.307 50.6095C299.697 48.8195 298.297 46.8195 296.047 45.8795L291.357 43.9295C283.607 40.6995 270.387 42.7695 266.887 51.8495C266.177 57.1995 267.857 62.0695 270.817 66.4795C272.397 68.8295 273.907 71.0995 276.257 72.7795C277.157 74.0195 278.407 74.8295 279.857 75.3595C285.667 77.4495 292.317 78.8295 298.517 77.3395L298.527 77.3295Z" fill="#080D07"></path>
<path d="M123.77 82.4486C123.46 84.1386 122.05 84.9786 119.56 84.9786C117.81 84.9786 116.62 84.3886 116 83.1986C115.69 81.5086 115.47 79.9686 115.34 78.5586C115.22 77.1486 115.07 75.6286 114.92 73.9686C114.76 72.3186 114.58 70.4286 114.36 68.2986C114.14 66.1786 113.75 63.5586 113.19 60.4286C113.06 59.2386 112.99 58.0886 112.96 56.9586C112.93 55.8386 112.88 54.7386 112.82 53.6786C111.63 55.2986 110.48 56.7986 109.35 58.1786C108.23 59.5486 107.07 60.7986 105.89 61.9286C104.45 64.1186 102.33 66.3886 99.52 68.7686H98.96C97.65 68.7686 96.38 68.4686 95.17 67.8786C93.95 67.2886 93.16 66.6486 92.78 65.9586C92.09 64.8386 91.24 63.3386 90.2 61.4586C89.16 59.5786 87.84 57.3986 86.22 54.8986L83.88 51.3386C83.57 52.9586 83.24 55.0086 82.9 57.4686C82.56 59.9386 82.17 62.8586 81.73 66.2286V67.6286C81.73 68.5686 81.7 69.6286 81.64 70.8086C81.58 71.9986 81.45 73.3386 81.27 74.8386L80.43 84.1086C80.24 85.9186 78.78 86.8286 76.03 86.8286C75.15 86.8286 74.47 86.7686 73.97 86.6386C73.47 86.5086 73.06 86.2486 72.75 85.8386C72.44 85.4286 72.24 84.8586 72.14 84.1086C72.05 83.3586 72 82.3286 72 81.0186C72 77.2686 72.03 75.3986 72.09 75.3986V75.4886C72.34 74.8686 72.54 74.0186 72.7 72.9586C72.86 71.8986 72.98 70.8486 73.08 69.8186C73.18 68.7886 73.25 67.4886 73.31 65.9286C73.31 65.8086 73.37 65.2886 73.5 64.3786C73.62 63.4786 73.77 62.4786 73.92 61.3786C74.08 60.2886 74.22 59.2286 74.34 58.1986C74.46 57.1686 74.53 56.4686 74.53 56.0886V55.5286C74.65 54.0286 74.78 52.3786 74.91 50.5686C75.03 48.7586 75.22 46.7586 75.47 44.5786L77.25 36.5286C78.25 35.7186 79.72 35.3086 81.65 35.3086C82.65 35.3086 83.52 35.4986 84.27 35.8686C85.27 37.3086 86.25 38.7086 87.22 40.0786C88.19 41.4486 89.19 42.9486 90.22 44.5786C91.25 46.1986 92.39 48.0786 93.64 50.1986C94.89 52.3186 96.36 54.8786 98.04 57.8786C100.6 55.5086 102.16 53.6286 102.72 52.2586C102.91 52.1986 104.87 49.5786 108.62 44.3886L112.74 39.1386C113.24 38.8886 113.93 38.7686 114.8 38.7686C116.55 38.7686 118.14 39.2986 119.58 40.3586C120.7 45.5386 121.27 49.2286 121.27 51.4086V52.2486C121.27 52.5586 121.33 53.2986 121.46 54.4486C121.58 55.6086 121.74 56.8486 121.93 58.1986C122.12 59.5386 122.29 60.8086 122.44 61.9886C122.6 63.1786 122.74 63.9886 122.86 64.4286C122.86 66.2386 122.94 68.1086 123.09 70.0486C123.25 71.9886 123.48 73.9786 123.79 76.0386C123.91 76.7886 124.01 77.4786 124.07 78.0986C124.13 78.7186 124.16 79.3186 124.16 79.8786C124.16 80.3786 124.13 80.8486 124.07 81.2786C124.01 81.7186 123.91 82.0886 123.79 82.3986L123.77 82.4486Z" fill="#080D07"></path>
<path d="M226.234 44.8895C225.354 45.2595 224.394 45.4495 223.334 45.4495C223.024 45.4495 222.564 45.4195 221.974 45.3595C221.384 45.2995 220.744 45.2195 220.054 45.1295C219.364 45.0395 218.694 44.9395 218.044 44.8495C217.384 44.7595 216.904 44.7095 216.594 44.7095C214.594 44.7095 212.664 44.9895 210.784 45.5495C211.154 47.9195 211.474 50.2295 211.724 52.4795C211.974 54.7295 212.194 56.8295 212.384 58.7995C212.574 60.7695 212.694 62.5495 212.764 64.1395C212.824 65.7295 212.854 67.0895 212.854 68.2095C212.854 71.0195 212.834 73.4395 212.804 75.4695C212.774 77.4995 212.604 79.1895 212.284 80.5295C211.974 81.8695 211.474 82.8595 210.784 83.4795C210.094 84.0995 209.094 84.4195 207.784 84.4195C206.474 84.4195 205.614 84.0895 205.024 83.4395C204.434 82.7795 204.024 81.9995 203.804 81.0995C203.584 80.1995 203.494 79.2395 203.524 78.2395C203.554 77.2395 203.574 76.3995 203.574 75.7095C203.574 74.5195 203.664 73.4495 203.854 72.4795C204.044 71.5095 204.134 70.5895 204.134 69.7195C204.134 69.2795 204.014 67.7095 203.764 64.9895C203.514 62.2695 203.384 58.8595 203.384 54.7295C203.384 53.3595 203.244 51.9995 202.964 50.6595C202.684 49.3195 202.384 48.0195 202.074 46.7695L196.544 47.1495C194.294 47.3395 192.734 47.6795 191.864 48.1795C190.554 48.1795 189.424 47.8095 188.494 47.0595C187.554 46.3095 187.094 45.3395 187.094 44.1595C187.094 42.9795 187.624 41.6595 188.684 40.2295C188.994 40.1695 190.404 39.9295 192.894 39.5295C195.394 39.1195 198.984 38.4895 203.664 37.6095L208.344 37.0495C209.844 36.8595 211.274 36.7695 212.654 36.7695H214.064L225.114 37.5195C226.424 38.2695 227.084 39.6695 227.084 41.7295C227.084 42.8495 226.804 43.9195 226.244 44.9095L226.234 44.8895Z" fill="#080D07"></path>
<path d="M243.778 85.7008C243.158 85.8808 243.298 85.8908 242.238 85.9508C241.178 86.0108 241.018 86.0408 240.348 85.9908C239.838 85.9508 239.058 85.7608 238.558 85.2608C237.098 83.8008 237.548 81.9708 237.548 81.4008C237.548 79.5908 237.628 79.9908 237.708 78.6708L237.638 77.3608C237.638 75.6708 237.828 73.2708 238.198 70.1508C238.138 69.8408 238.088 69.4808 238.058 69.0708C238.028 68.6608 238.008 68.2108 238.008 67.7108C238.008 65.5208 238.068 63.8408 238.198 62.6508C238.318 61.4608 238.388 60.8108 238.388 60.6808C238.388 60.1208 238.368 59.4808 238.338 58.7608C238.308 58.0408 238.248 57.0708 238.148 55.8608C238.058 54.6408 237.928 53.1308 237.778 51.3208C237.618 49.5108 237.448 47.2908 237.258 44.6708C237.258 44.6708 236.578 41.3608 236.578 40.1708C236.578 39.4808 236.668 38.9108 236.858 38.4408C237.048 37.9708 237.408 37.5808 237.938 37.2708C238.468 36.9608 239.218 36.7408 240.188 36.6108C241.158 36.4908 240.898 36.5108 241.318 36.5008C241.588 36.4908 241.598 36.4708 242.298 36.5208C242.998 36.5708 242.708 36.5908 243.098 36.5808C243.298 36.5808 243.728 36.6808 243.728 36.6808C244.028 36.7308 244.308 36.8408 244.768 37.4808C245.088 37.9208 245.138 38.2208 245.248 38.7208C245.358 39.2208 245.438 40.1208 245.438 40.8708C245.438 42.4308 245.298 41.5808 245.578 43.8008C245.558 44.3908 245.508 44.6508 245.518 45.0408C245.578 45.9808 245.638 46.7908 245.708 47.4808C245.768 48.1708 245.848 49.0608 245.938 50.1508C246.028 51.2408 246.108 52.6808 246.168 54.4608C246.228 56.2408 246.288 58.6608 246.358 61.7208C246.358 63.1608 246.338 64.3908 246.308 65.4208C246.278 66.4508 246.258 67.3708 246.258 68.1808C246.258 69.8008 246.288 70.7108 246.348 70.9008L245.978 77.0808C245.988 79.0708 245.878 79.3708 245.908 79.9808C245.938 80.7808 245.968 80.9608 245.968 82.2008C245.968 83.0108 245.878 84.7008 243.788 85.7008H243.778Z" fill="#080D07"></path>
<path d="M359.462 65.73V68.17C359.462 70.61 359.372 72.98 359.182 75.29V76.6C359.182 77.29 359.122 78.05 358.992 78.89C358.862 79.73 358.662 80.54 358.382 81.33C358.102 82.11 357.692 82.77 357.162 83.3C356.632 83.83 355.992 84.1 355.242 84.1C353.492 84.1 352.022 83.51 350.842 82.32C350.842 81.26 348.592 78.01 344.102 72.58C343.792 71.83 343.242 70.85 342.462 69.63C341.682 68.41 340.692 66.96 339.512 65.28C339.202 65.03 338.712 64.44 338.062 63.5C337.402 62.56 336.752 61.58 336.092 60.55C335.432 59.52 334.872 58.6 334.402 57.79C333.932 56.98 333.732 56.6 333.792 56.67C333.292 56.17 332.702 55.47 332.012 54.56C331.322 53.66 330.482 52.52 329.482 51.14C329.482 54.45 329.322 56.35 329.012 56.85C328.952 57.54 328.872 58.43 328.782 59.52C328.692 60.61 328.592 61.74 328.502 62.89C328.412 64.05 328.332 65.17 328.272 66.26C328.212 67.35 328.142 68.21 328.082 68.84V69.21C328.082 69.71 327.972 70.47 327.752 71.5C327.532 72.53 327.282 73.58 327.002 74.64C326.722 75.7 326.452 76.67 326.202 77.54C325.952 78.42 325.822 78.91 325.822 79.04C324.882 81.1 323.422 82.13 321.422 82.13C319.422 82.13 318.172 80.85 317.672 78.29C318.112 75.79 318.762 71.67 319.642 65.93C319.702 64.81 319.812 63.34 319.972 61.53C320.132 59.72 320.362 57.5 320.672 54.88C320.792 54.26 320.922 53.23 321.052 51.79C321.172 50.35 321.312 48.84 321.472 47.25C321.622 45.66 321.802 44.14 321.982 42.71C322.172 41.27 322.362 40.24 322.542 39.62C323.912 37.87 325.822 37 328.252 37C328.562 37.13 328.982 37.47 329.512 38.03C330.042 38.59 330.622 39.26 331.242 40.04C331.862 40.82 332.522 41.66 333.212 42.57C333.902 43.48 334.522 44.4 335.082 45.33C335.772 46.14 336.692 47.28 337.842 48.75C339.002 50.22 340.312 51.9 341.772 53.81C343.242 55.72 344.772 57.79 346.362 60.04C347.952 62.29 349.502 64.63 351.002 67.06V64.53C351.002 62.22 350.912 60.53 350.722 59.47C350.842 59.09 350.912 58.69 350.912 58.25C350.912 58.13 350.862 57.73 350.772 57.08C350.682 56.42 350.582 55.68 350.492 54.83C350.402 53.99 350.302 53.16 350.212 52.35C350.122 51.54 350.072 50.91 350.072 50.48C350.072 50.36 350.082 50.25 350.122 50.15C350.152 50.06 350.172 49.95 350.172 49.82C349.982 47.07 349.792 44.78 349.612 42.94C349.422 41.1 349.202 39.68 348.952 38.68C349.642 35.56 351.012 34 353.072 34C355.132 34 356.632 35.03 357.572 37.09C357.692 39.28 357.882 41.77 358.132 44.58C358.382 47.39 358.722 50.51 359.162 53.95L359.442 65.75L359.462 65.73Z" fill="#080D07"></path>
<path d="M157.461 66.6038C157.759 66.0131 158.794 62.8943 160.513 59.9757C160.889 59.375 161.184 58.8582 161.484 58.4074C161.783 57.9565 162.079 57.5874 162.383 57.207" stroke="#080D07" stroke-width="6" stroke-linecap="round"></path>
<path d="M282.031 54.207C283.259 54.6447 286.79 56.5836 289.625 57.9602C290.774 58.6206 291.84 59.2439 292.811 59.9044C293.256 60.3022 293.606 60.8274 294.497 61.8989" stroke="#080D07" stroke-width="6" stroke-linecap="round"></path>
<path d="M138.4 105.352C132.528 103.153 124.43 102.684 118.422 104.353C114.101 105.552 110.417 107.75 107.332 111.094C103.727 115.001 100.985 118.631 100.411 124.822C99.8046 131.372 101.549 137.311 106.399 141.645C108.195 143.251 110.291 144.353 112.421 145.507C117.082 148.031 122.168 148.976 127.478 148.123C130.443 147.645 133.208 146.554 135.995 145.432C138.782 144.31 140.918 142.83 143.045 140.912C144.545 139.558 146.883 139.418 148.358 140.855C151.03 143.463 149.156 146.703 147.729 147.997C145.368 150.138 142.806 151.936 139.85 153.095L134.385 155.239C122.247 159.999 106.498 154.993 98.4952 145.455L96.6997 142.71C94.9773 140.363 93.7016 136.576 93.2633 133.599C92.1619 126.125 94.6205 118.937 98.6862 112.889C100.968 109.491 103.471 107.066 106.705 104.713C113.292 99.9215 120.718 97.6745 128.897 98.038C134.421 98.2842 139.631 99.2918 144.388 102.418C150.055 106.142 153.607 112.25 152.955 119.309L152.503 124.221C152.23 127.161 151.418 130.061 149.496 132.333C147.136 135.124 143.483 136.178 139.982 135.74C136.793 135.342 134.253 133.699 132.73 130.559C130.246 135.94 125.014 138.379 119.302 138.831C113.929 138.909 109.021 134.764 109.035 129.099C109.049 123.434 113.151 117.74 117.945 115.07C123.188 112.15 127.768 110.911 135.354 113.192C136.206 113.172 137.743 113.776 138.299 114.391C140.131 116.421 138.527 121.072 137.914 124.482C137.658 125.904 138.102 127.218 139.069 128.189C139.929 129.05 141.502 129.611 142.845 128.93C146.602 127.024 147.698 118.725 146.897 114.606C146.006 110.029 142.472 106.874 138.4 105.349V105.352ZM123.359 130.782C125.25 130.501 126.526 129.938 128.004 128.669C129.324 127.536 130.521 125.535 130.988 123.838L132.657 117.761C132.744 117.446 132.915 116.656 133.056 116.478C130.488 114.961 128.108 115.256 125.472 116.08C122.218 117.096 119.999 119.014 118.057 122.126C117.259 123.402 116.807 125.277 116.981 126.835C117.155 128.392 117.81 129.631 119.327 130.229C120.184 130.567 122.151 130.962 123.359 130.782Z" fill="black"></path>
</svg>